<svg width="134" height="48" viewBox="0 0 134 48" fill="none" xmlns="http://www.w3.org/2000/svg">
<g clip-path="url(#clip0_33_2694)">
<path d="M15.135 5.99995H0.5V41L15.135 5.99995Z" fill="white"/>
<path d="M25.4316 5.99995H40.0476V41L25.4316 5.99995Z" fill="white"/>
<path d="M20.2842 18.8997L29.5991 41H23.4876L20.7037 33.9637H13.8867L20.2842 18.8997Z" fill="white"/>
<path d="M63.9236 28.2577L65.6493 33.206C65.7065 33.3299 65.7923 33.3871 65.9448 33.3871H69.2627C69.4439 33.3871 69.4725 33.3013 69.4439 33.1202L62.5888 14.0804C62.5602 13.9278 62.5316 13.8992 62.379 13.8992H58.2603C58.1459 13.8992 58.0791 13.985 58.0791 14.109C58.0219 15.1101 57.9361 15.4152 57.8122 15.7107L51.7007 33.0916C51.6721 33.3013 51.7389 33.3871 51.9105 33.3871H54.8756C55.0568 33.3871 55.1426 33.3299 55.2093 33.1488L56.8397 28.2577H63.9236ZM57.7836 25.0256C58.6798 22.3179 59.862 18.8475 60.3387 16.8644H60.3673C60.9584 18.9428 62.3504 23.0616 62.9797 25.0256H57.7836Z" fill="white"/>
<path d="M78.2572 33.6826C80.0401 33.6826 81.9374 33.3585 83.8633 32.529C84.0158 32.4718 84.0444 32.4051 84.0444 32.262C83.9872 31.7281 83.9205 30.9559 83.9205 30.3647V12.4405C83.9205 12.3261 83.9205 12.2689 83.7775 12.2689H80.5454C80.4215 12.2689 80.3643 12.3261 80.3643 12.4786V18.5519C79.8589 18.4947 79.5062 18.4661 79.0867 18.4661C73.8715 18.4661 70.668 21.9079 70.668 26.2078C70.668 31.1942 73.9573 33.6826 78.2572 33.6826ZM80.3642 30.3647C79.8303 30.5364 79.2392 30.6031 78.6386 30.6031C76.2741 30.6031 74.3386 29.2683 74.3386 26.0267C74.3386 23.1569 76.3313 21.4598 78.9723 21.4598C79.5062 21.4598 79.9733 21.517 80.3642 21.6696V30.3647Z" fill="white"/>
<path d="M94.3553 18.4661C89.9028 18.4661 87.1475 21.8793 87.1475 26.0934C87.1475 29.8594 89.3403 33.6827 94.2886 33.6827C98.4741 33.6827 101.411 30.6031 101.411 25.9981C101.411 21.9365 98.9222 18.4661 94.3553 18.4661ZM94.1742 21.4598C96.6912 21.4598 97.759 23.6241 97.759 26.0934C97.759 29.1444 96.1859 30.6603 94.3553 30.6603C92.0957 30.6603 90.7609 28.763 90.7609 26.0267C90.7609 23.2141 92.1815 21.4598 94.1742 21.4598V21.4598Z" fill="white"/>
<path d="M104.752 12.2689C104.628 12.2689 104.542 12.3261 104.542 12.4786V32.7674C104.542 32.8532 104.628 33.0057 104.752 33.0343C106.172 33.4729 107.66 33.6826 109.195 33.6826C113.59 33.6826 117.861 30.9559 117.861 25.4642C117.861 21.4884 115.134 18.4661 110.863 18.4661C109.881 18.4661 108.966 18.6186 108.165 18.8856L108.127 12.5072C108.127 12.2975 108.07 12.2689 107.86 12.2689H104.752ZM114.21 25.8265C114.21 29.1158 111.96 30.6603 109.528 30.6603C109.023 30.6603 108.575 30.6317 108.165 30.5078V21.8507C108.632 21.6696 109.195 21.517 110.234 21.517C112.579 21.517 114.21 23.0044 114.21 25.8265Z" fill="white"/>
<path d="M129.923 26.8943C131.372 26.8943 132.564 26.8657 132.974 26.7704C133.127 26.7418 133.184 26.6846 133.213 26.5606C133.298 26.2365 133.336 25.5595 133.336 24.7301C133.336 21.9079 131.639 18.4661 127.254 18.4661C122.773 18.4661 120.284 22.1177 120.284 26.2365C120.284 29.8881 122.21 33.6827 127.606 33.6827C129.628 33.6827 130.934 33.3585 132.059 32.8246C132.173 32.7674 132.23 32.672 132.23 32.5004V30.0311C132.23 29.8881 132.145 29.8595 132.059 29.9167C130.934 30.3934 129.713 30.6317 128.379 30.6317C125.356 30.6317 123.983 28.9632 123.898 26.8943H129.923ZM123.898 24.3392C124.136 22.89 125.051 21.3168 127.101 21.3168C129.361 21.3168 129.952 23.2141 129.952 24.0722C129.952 24.1008 129.952 24.2247 129.952 24.3106C129.828 24.3392 129.447 24.3392 128.321 24.3392H123.898Z" fill="white"/>
</g>
<defs>
<clipPath id="clip0_33_2694">
<rect width="133" height="48" fill="white" transform="translate(0.5 -4.57764e-05)"/>
</clipPath>
</defs>
</svg>
