<svg width="128" height="48" viewBox="0 0 128 48" fill="none" xmlns="http://www.w3.org/2000/svg">
<g clip-path="url(#clip0_33_2703)">
<path fill-rule="evenodd" clip-rule="evenodd" d="M123.207 31.9802C123.283 32.8498 123.979 33.9566 125.184 33.9566H125.889C126.163 33.9566 126.387 33.7326 126.387 33.4591V17.9534H126.383C126.37 17.6922 126.154 17.483 125.889 17.483H123.705C123.44 17.483 123.224 17.6922 123.211 17.9534H123.207V19.2133C121.869 17.5634 119.758 16.8786 117.642 16.8786C112.832 16.8786 108.933 20.7811 108.933 25.5952C108.933 30.4098 112.832 34.3123 117.642 34.3123C119.758 34.3123 122.065 33.491 123.207 31.9783V31.9802ZM117.65 31.2616C114.591 31.2616 112.111 28.7249 112.111 25.5952C112.111 22.4662 114.591 19.9294 117.65 19.9294C120.711 19.9294 123.19 22.4662 123.19 25.5952C123.19 28.7249 120.711 31.2616 117.65 31.2616Z" fill="white"/>
<path fill-rule="evenodd" clip-rule="evenodd" d="M106.17 24.49C106.17 19.9671 103.319 16.916 98.7725 16.916C96.6021 16.916 94.823 18.1719 94.1946 19.2508C94.0588 18.4072 93.6113 17.5204 92.2235 17.5204H91.5161C91.2425 17.5204 91.019 17.7446 91.019 18.0181V32.019C91.019 32.0195 91.019 32.0205 91.019 32.0212V33.5252H91.0218C91.0361 33.786 91.2521 33.9954 91.5163 33.9954H93.701C93.7344 33.9954 93.7672 33.9914 93.7989 33.9853C93.8134 33.9825 93.8268 33.9768 93.8409 33.9728C93.8571 33.9678 93.874 33.9639 93.8895 33.9576C93.9089 33.9495 93.9265 33.9387 93.9446 33.9286C93.9535 33.9231 93.9628 33.9194 93.9713 33.9137C93.9931 33.8996 94.0131 33.8827 94.0324 33.8654C94.0356 33.8622 94.0394 33.8601 94.0426 33.8571C94.0643 33.8361 94.0842 33.8129 94.1017 33.7888C94.1563 33.7137 94.1897 33.6228 94.1952 33.5252H94.198V24.3655C94.198 21.9365 96.1659 19.9671 98.5933 19.9671C101.021 19.9671 102.988 21.9365 102.988 24.3655L102.99 32.0218L102.991 32.019C102.991 32.0259 102.992 32.0328 102.992 32.0401V33.5252H102.995C103.009 33.786 103.225 33.9954 103.489 33.9954H105.674C105.708 33.9954 105.74 33.9914 105.772 33.9853C105.785 33.9829 105.797 33.9777 105.81 33.9742C105.827 33.9689 105.846 33.9645 105.863 33.9576C105.881 33.9502 105.897 33.9398 105.914 33.9303C105.924 33.9245 105.935 33.9203 105.945 33.9137C105.965 33.9004 105.984 33.8844 106.002 33.8686C106.006 33.8643 106.012 33.8611 106.016 33.8568C106.037 33.8368 106.055 33.8152 106.072 33.7926C106.073 33.7909 106.075 33.7895 106.076 33.7878C106.13 33.7134 106.163 33.6235 106.168 33.5264C106.168 33.5258 106.168 33.5252 106.168 33.5252H106.171L106.17 24.49Z" fill="white"/>
<path fill-rule="evenodd" clip-rule="evenodd" d="M83.4183 31.9802C83.4947 32.8497 84.1903 33.9566 85.3953 33.9566H86.1003C86.3735 33.9566 86.5973 33.7326 86.5973 33.4591V17.9534H86.5945C86.5803 17.6922 86.3641 17.483 86.1003 17.483H83.9156C83.6514 17.483 83.4356 17.6922 83.4208 17.9534H83.4183V19.2133C82.0797 17.5634 79.9693 16.8786 77.8531 16.8786C73.0429 16.8786 69.1436 20.781 69.1436 25.5953C69.1436 30.4097 73.0429 34.3124 77.8531 34.3124C79.9693 34.3124 82.2757 33.4911 83.4181 31.9783L83.4183 31.9802ZM77.8616 31.2616C74.8025 31.2616 72.3223 28.725 72.3223 25.5953C72.3223 22.4662 74.8025 19.9294 77.8616 19.9294C80.921 19.9294 83.4008 22.4662 83.4008 25.5953C83.4008 28.725 80.921 31.2616 77.8616 31.2616Z" fill="white"/>
<path fill-rule="evenodd" clip-rule="evenodd" d="M56.2244 29.7595C57.6828 30.7706 59.2747 31.2618 60.8045 31.2618C62.2619 31.2618 63.7686 30.5056 63.7686 29.1895C63.7686 27.4324 60.4855 27.159 58.4228 26.4574C56.3596 25.7559 54.5827 24.3055 54.5827 21.9567C54.5827 18.3627 57.7825 16.8784 60.7691 16.8784C62.6614 16.8784 64.6138 17.5028 65.8796 18.3974C66.3155 18.728 66.05 19.1075 66.05 19.1075L64.8418 20.8345C64.706 21.0291 64.4685 21.1971 64.1277 20.9866C63.7868 20.7762 62.5912 19.9293 60.7691 19.9293C58.9469 19.9293 57.8493 20.7714 57.8493 21.8152C57.8493 23.067 59.2758 23.4607 60.9468 23.8873C63.8587 24.6728 67.0352 25.617 67.0352 29.1895C67.0352 32.3561 64.0755 34.313 60.8045 34.313C58.3257 34.313 56.2153 33.6059 54.4453 32.306C54.0765 31.9367 54.334 31.5937 54.334 31.5937L55.5364 29.8754C55.7811 29.5542 56.0895 29.6662 56.2244 29.7595Z" fill="white"/>
<path fill-rule="evenodd" clip-rule="evenodd" d="M47.8257 31.9802C47.902 32.8497 48.5976 33.9566 49.8025 33.9566H50.5076C50.7809 33.9566 51.0049 33.7326 51.0049 33.4591V17.9534H51.0018C50.9875 17.6922 50.7717 17.483 50.5076 17.483H48.3229C48.0587 17.483 47.8429 17.6922 47.8283 17.9534H47.8257V19.2133C46.4871 17.5634 44.3768 16.8786 42.2606 16.8786C37.4503 16.8786 33.5508 20.781 33.5508 25.5953C33.5508 30.4097 37.4503 34.3124 42.2606 34.3124C44.3768 34.3124 46.6831 33.4911 47.8253 31.9783L47.8257 31.9802ZM42.2691 31.2616C39.2098 31.2616 36.7296 28.725 36.7296 25.5953C36.7296 22.4662 39.2098 19.9294 42.2691 19.9294C45.3283 19.9294 47.8082 22.4662 47.8082 25.5953C47.8082 28.725 45.3283 31.2616 42.2691 31.2616Z" fill="white"/>
<path fill-rule="evenodd" clip-rule="evenodd" d="M21.3395 26.188C18.1025 26.188 15.4782 28.8122 15.4782 32.0496C15.4782 35.2868 18.1025 37.911 21.3395 37.911C24.5767 37.911 27.2009 35.2868 27.2009 32.0496C27.2009 28.8122 24.5767 26.188 21.3395 26.188ZM6.11134 26.1886C2.87424 26.1886 0.25 28.8122 0.25 32.0496C0.25 35.2868 2.87424 37.911 6.11134 37.911C9.34858 37.911 11.973 35.2868 11.973 32.0496C11.973 28.8122 9.34858 26.1886 6.11134 26.1886ZM19.5867 18.8612C19.5867 22.0985 16.9626 24.723 13.7255 24.723C10.4882 24.723 7.86414 22.0985 7.86414 18.8612C7.86414 15.6244 10.4882 12.9999 13.7255 12.9999C16.9626 12.9999 19.5867 15.6244 19.5867 18.8612Z" fill="white"/>
</g>
<defs>
<clipPath id="clip0_33_2703">
<rect width="127" height="48" fill="white" transform="translate(0.25 -4.57764e-05)"/>
</clipPath>
</defs>
</svg>
