<?xml version="1.0" standalone="no"?>
<!DOCTYPE svg PUBLIC "-//W3C//DTD SVG 20010904//EN"
 "http://www.w3.org/TR/2001/REC-SVG-20010904/DTD/svg10.dtd">
<svg version="1.0" xmlns="http://www.w3.org/2000/svg"
 width="200.000000pt" height="200.000000pt" viewBox="0 0 200.000000 200.000000"
 preserveAspectRatio="xMidYMid meet">

<g transform="translate(0.000000,200.000000) scale(0.100000,-0.100000)"
fill="#000000" stroke="none">
<path d="M0 1000 l0 -1000 1000 0 1000 0 0 1000 0 1000 -1000 0 -1000 0 0
-1000z m1115 648 c49 -29 173 -100 275 -159 102 -59 186 -113 188 -122 4 -19
-221 -150 -257 -150 -15 0 -143 68 -304 162 -153 88 -283 161 -288 161 -26 0
3 22 119 87 70 40 138 73 152 73 13 0 65 -23 115 -52z m-123 -298 c157 -91
284 -168 282 -171 -7 -12 -232 -138 -257 -144 -20 -5 -69 18 -252 125 -124 72
-258 148 -296 169 l-70 38 128 76 c81 48 137 75 154 74 14 -1 154 -76 311
-167z m624 -325 c-4 -14 -89 -68 -273 -174 -147 -85 -280 -163 -295 -174 l-28
-18 0 153 c0 108 4 159 13 170 6 9 133 87 282 173 148 85 277 162 285 171 13
13 15 -1 18 -133 1 -81 1 -157 -2 -168z m-1091 229 c64 -36 120 -74 125 -85 7
-11 9 -144 8 -353 l-3 -335 -115 66 c-179 102 -160 50 -160 440 0 293 2 333
15 333 9 0 67 -30 130 -66z m312 -180 c61 -36 117 -72 125 -81 10 -12 14 -95
18 -359 l5 -343 -55 31 c-30 18 -93 54 -140 82 l-85 51 -5 348 c-4 305 -3 347
10 342 8 -4 65 -35 127 -71z m769 -428 c-13 -21 -528 -323 -566 -333 -19 -5
-20 0 -20 144 0 142 1 150 23 170 12 11 135 84 272 163 138 79 261 151 275
161 l25 17 3 -150 c2 -117 -1 -155 -12 -172z"/>
</g>
</svg>
