<svg width="148" height="48" viewBox="0 0 148 48" fill="none" xmlns="http://www.w3.org/2000/svg">
<path d="M0.239289 26.2057L15.7943 41.7607C7.85086 40.418 1.582 34.1491 0.239289 26.2057Z" fill="white"/>
<path d="M0 21.9827L20.0172 42C21.2077 41.9364 22.3691 41.7632 23.4914 41.4905L0.509432 18.5085C0.236716 19.631 0.0636084 20.7923 0 21.9827Z" fill="white"/>
<path d="M1.50586 15.5211L26.4789 40.4942C27.3885 40.1038 28.2615 39.6446 29.0913 39.1229L2.87713 12.9088C2.3555 13.7386 1.89623 14.6116 1.50586 15.5211Z" fill="white"/>
<path d="M4.56891 10.6171C8.05582 6.56551 13.2214 3.99995 18.9863 3.99995C29.4873 3.99995 38 12.5127 38 23.0137C38 28.7785 35.4345 33.9441 31.3828 37.431L4.56891 10.6171Z" fill="white"/>
<path d="M57.8105 34.3999H71.7423V30.606H62.4119V12.6362H57.8105V34.3999ZM74.7044 34.3999H79.2315V18.0771H74.7044V34.3999ZM76.9785 16.1431C78.2964 16.1431 79.4334 15.1441 79.4334 13.8477C79.4334 12.5618 78.2964 11.5629 76.9785 11.5629C75.6715 11.5629 74.5345 12.5618 74.5345 13.8477C74.5345 15.1441 75.6715 16.1431 76.9785 16.1431ZM87.3849 24.9633C87.3954 22.8592 88.6494 21.6265 90.4772 21.6265C92.2945 21.6265 93.3891 22.8167 93.3784 24.8145V34.3999H97.9054V24.0069C97.9054 20.2025 95.6738 17.8646 92.2732 17.8646C89.8503 17.8646 88.0968 19.0548 87.3637 20.957H87.1723V18.0771H82.8578V34.3999H87.3849V24.9633ZM108.955 34.7187C113.003 34.7187 115.713 32.7527 116.351 29.7241L112.174 29.4478C111.717 30.6912 110.538 31.3394 109.04 31.3394C106.776 31.3394 105.341 29.841 105.341 27.4074V27.3968H116.457V26.1535C116.457 20.6063 113.099 17.8646 108.784 17.8646C103.981 17.8646 100.868 21.2758 100.868 26.3129C100.868 31.4882 103.939 34.7187 108.955 34.7187ZM105.341 24.5914C105.427 22.7317 106.85 21.2439 108.859 21.2439C110.814 21.2439 112.174 22.6467 112.196 24.5914H105.341ZM124.13 34.7081C126.542 34.7081 128.104 33.6561 128.901 32.1364H129.029V34.3999H133.322V23.3905C133.322 19.5011 129.996 17.8646 126.467 17.8646C122.451 17.8646 119.911 19.7349 119.284 22.7104L123.471 23.0505C123.779 21.9665 124.746 21.1695 126.372 21.1695C127.934 21.1695 128.784 21.9347 128.795 23.3055C128.805 24.3788 127.679 24.5382 124.842 24.8145C121.611 25.1121 118.71 26.196 118.71 29.841C118.71 33.0715 121.016 34.7081 124.13 34.7081ZM125.426 31.5838C124.034 31.5838 123.035 30.9356 123.035 29.6922C123.035 28.417 124.087 27.7899 125.681 27.5668C126.669 27.4287 128.285 27.1949 128.827 26.8336V28.5658C128.827 30.2767 127.413 31.5838 125.426 31.5838ZM136.834 34.3999H141.361V25.1652C141.371 23.1674 142.817 21.7965 144.645 21.7965C145.261 21.7965 145.76 21.9665 146.185 22.1791L147.546 18.4385C146.951 18.0771 146.185 17.8433 145.314 17.8433C143.476 17.8433 141.988 18.906 141.393 20.9251H141.223V18.0771H136.834V34.3999Z" fill="white"/>
</svg>
