<svg width="122" height="48" viewBox="0 0 122 48" fill="none" xmlns="http://www.w3.org/2000/svg">
<g clip-path="url(#clip0_33_2688)">
<path d="M38.6753 32.4263L40.1434 28.9948C41.7509 30.1853 43.8475 30.8153 45.9447 30.8153C47.4825 30.8153 48.4609 30.2204 48.4609 29.3101C48.4258 26.7889 39.1996 28.7497 39.1294 22.4111C39.0943 19.1897 41.9604 16.7036 46.0149 16.7036C48.4258 16.7036 50.8378 17.299 52.55 18.6649L51.1781 22.1695C49.6027 21.1565 47.6569 20.4503 45.8049 20.4503C44.5468 20.4503 43.7077 21.0453 43.7077 21.8162C43.7428 24.3023 53.0397 22.9364 53.1445 28.9948C53.1445 32.2865 50.3481 34.5976 46.3637 34.5976C43.4285 34.5976 40.7374 33.8974 38.6748 32.4263H38.6753ZM97.1333 27.7523C96.7628 28.4107 96.2237 28.9587 95.5715 29.3401C94.9192 29.7215 94.1773 29.9226 93.4217 29.9226C91.0669 29.9226 89.1582 28.0099 89.1582 25.6506C89.1582 23.2913 91.0669 21.3786 93.4217 21.3786C94.1773 21.3786 94.9192 21.5797 95.5715 21.9611C96.2237 22.3425 96.7628 22.8905 97.1333 23.5489L101.215 21.2833C99.6861 18.5511 96.7699 16.7036 93.4217 16.7036C88.49 16.7036 84.4922 20.7089 84.4922 25.6506C84.4922 30.5918 88.49 34.5976 93.4217 34.5976C96.7699 34.5976 99.6861 32.7501 101.215 30.0179L97.1333 27.7523ZM55.793 34.2473H60.8956V9.25571H55.7935L55.793 34.2473ZM103.792 9.25571V34.2473H108.894V26.7598L114.941 34.2473H121.463L113.774 25.3524L120.903 17.0524H114.661L108.894 23.9529V9.25571H103.792ZM76.6158 17.0534V19.0849C75.7772 17.684 73.7151 16.7036 71.5483 16.7036C67.0748 16.7036 63.5451 20.6608 63.5451 25.6331C63.5451 30.6053 67.0748 34.5976 71.5483 34.5976C73.7151 34.5976 75.7772 33.6172 76.6158 32.2163V34.2473H81.7184V17.0534H76.6158ZM76.6158 27.7869C75.882 29.0124 74.3442 29.9221 72.632 29.9221C70.2767 29.9221 68.368 28.0099 68.368 25.6506C68.368 23.2913 70.2767 21.3786 72.632 21.3786C74.3442 21.3786 75.882 22.3239 76.6158 23.584V27.7869Z" fill="white"/>
<path d="M11.728 8.70355C10.0745 8.70355 8.73417 10.0469 8.73417 11.7034C8.73378 12.097 8.8109 12.4868 8.96115 12.8505C9.11139 13.2143 9.33181 13.5449 9.60981 13.8234C9.88782 14.102 10.218 14.3231 10.5814 14.4741C10.9449 14.625 11.3345 14.7029 11.728 14.7033H14.7224V11.7034C14.7231 10.9086 14.408 10.146 13.8465 9.58342C13.2849 9.02084 12.5229 8.70435 11.728 8.70355ZM11.728 16.7033H3.74388C2.0903 16.7033 0.75 18.0466 0.75 19.7037C0.75 21.3602 2.0903 22.7035 3.74388 22.7035H11.7285C13.3816 22.7035 14.7224 21.3602 14.7224 19.7037C14.7224 18.0466 13.3816 16.7033 11.728 16.7033Z" fill="white"/>
<path d="M30.6912 19.7037C30.6912 18.0466 29.3504 16.7033 27.6968 16.7033C26.0432 16.7033 24.7029 18.0466 24.7029 19.7037V22.7035H27.6968C28.4917 22.7028 29.2537 22.3863 29.8152 21.8237C30.3768 21.2611 30.6918 20.4985 30.6912 19.7037ZM22.707 19.7037V11.7034C22.7077 10.9086 22.3926 10.146 21.831 9.58342C21.2695 9.02084 20.5075 8.70435 19.7126 8.70355C18.0591 8.70355 16.7188 10.0469 16.7188 11.7034V19.7032C16.7188 21.3607 18.0591 22.704 19.7126 22.704C20.5075 22.7033 21.2695 22.3868 21.831 21.8242C22.3926 21.2616 22.7077 20.499 22.707 19.7042" fill="white"/>
<path d="M19.7126 38.7035C20.5075 38.7028 21.2695 38.3863 21.831 37.8237C22.3926 37.2611 22.7077 36.4985 22.707 35.7037C22.7077 34.9088 22.3926 34.1462 21.831 33.5836C21.2695 33.0211 20.5075 32.7046 19.7126 32.7038H16.7188V35.7037C16.7188 37.3602 18.0591 38.7035 19.7126 38.7035ZM19.7126 30.7038H27.6973C29.3504 30.7038 30.6912 29.3605 30.6912 27.7034C30.6918 26.9086 30.3768 26.146 29.8152 25.5834C29.2537 25.0208 28.4917 24.7043 27.6968 24.7036H19.7126C18.0591 24.7036 16.7188 26.0469 16.7188 27.7034C16.7184 28.097 16.7955 28.4868 16.9457 28.8505C17.096 29.2143 17.3164 29.5449 17.5944 29.8234C17.8724 30.102 18.2026 30.3231 18.566 30.4741C18.9294 30.625 19.3191 30.7029 19.7126 30.7033" fill="white"/>
<path d="M0.750002 27.7034C0.749606 28.097 0.826732 28.4868 0.976974 28.8505C1.12722 29.2143 1.34763 29.5449 1.62564 29.8234C1.90365 30.102 2.2338 30.3231 2.59725 30.4741C2.9607 30.625 3.35032 30.7029 3.74388 30.7033C4.53875 30.7025 5.30075 30.386 5.86229 29.8235C6.42383 29.2609 6.73892 28.4983 6.73826 27.7034V24.7036H3.74388C2.0903 24.7036 0.750002 26.0469 0.750002 27.7034ZM8.73417 27.7034V35.7032C8.73417 37.3602 10.0745 38.7035 11.7281 38.7035C12.5229 38.7028 13.2849 38.3863 13.8465 37.8237C14.408 37.2611 14.7231 36.4985 14.7224 35.7037V27.7034C14.7228 27.3098 14.6457 26.92 14.4954 26.5562C14.3451 26.1925 14.1247 25.8618 13.8466 25.5833C13.5686 25.3047 13.2383 25.0836 12.8748 24.9327C12.5113 24.7817 12.1216 24.7039 11.7281 24.7036C10.0745 24.7036 8.73417 26.0469 8.73417 27.7034Z" fill="white"/>
</g>
<defs>
<clipPath id="clip0_33_2688">
<rect width="121" height="48" fill="white" transform="translate(0.75 -4.57764e-05)"/>
</clipPath>
</defs>
</svg>
