<svg width="140" height="48" viewBox="0 0 140 48" fill="none" xmlns="http://www.w3.org/2000/svg">
<g clip-path="url(#clip0_33_2686)">
<path d="M21.0727 3.07906C9.4747 3.07906 0.0722656 12.4812 0.0722656 24.0792C0.0722656 35.6776 9.4747 45.0791 21.0727 45.0791C32.6719 45.0791 42.0733 35.6776 42.0733 24.0792C42.0733 12.482 32.6719 3.08006 21.0724 3.08006L21.0727 3.07906ZM30.7033 33.3673C30.3271 33.9842 29.5196 34.1798 28.9028 33.8011C23.9721 30.7893 17.765 30.1072 10.455 31.7774C9.75055 31.9379 9.04839 31.4965 8.8879 30.7918C8.72665 30.0872 9.16626 29.385 9.87243 29.2245C17.872 27.3969 24.7339 28.1838 30.2695 31.5667C30.8864 31.9454 31.082 32.7504 30.7033 33.3673ZM33.2737 27.6492C32.7997 28.4195 31.7916 28.6628 31.0218 28.1888C25.3769 24.7191 16.7722 23.7143 10.0954 25.741C9.22945 26.0026 8.31489 25.5146 8.05208 24.6502C7.79127 23.7843 8.27953 22.8715 9.14394 22.6082C16.7707 20.294 26.2521 21.415 32.7345 25.3985C33.5044 25.8724 33.7477 26.8803 33.2737 27.6492ZM33.4944 21.6948C26.726 17.6747 15.5592 17.3051 9.09704 19.2664C8.05935 19.5811 6.96197 18.9953 6.6475 17.9576C6.33303 16.9194 6.91834 15.8228 7.95678 15.5073C15.3749 13.2554 27.7066 13.6905 35.4991 18.3164C36.4344 18.8704 36.7404 20.0759 36.1862 21.008C35.6345 21.9414 34.4247 22.249 33.4944 21.6948ZM57.2074 22.4652C53.5812 21.6006 52.9367 20.9937 52.9367 19.7185C52.9367 18.5138 54.0702 17.7031 55.7579 17.7031C57.3929 17.7031 59.0129 18.3187 60.7132 19.5861C60.7633 19.6245 60.8285 19.6398 60.8912 19.6297C60.9564 19.6202 61.0116 19.5854 61.0492 19.5329L62.8196 17.0373C62.8924 16.9344 62.8723 16.7928 62.7745 16.7143C60.7508 15.091 58.4738 14.3018 55.8106 14.3018C51.896 14.3018 49.1601 16.6513 49.1601 20.0129C49.1601 23.6178 51.5199 24.8942 55.5974 25.8795C59.0656 26.6787 59.6524 27.3482 59.6524 28.5449C59.6524 29.8715 58.4687 30.6965 56.5629 30.6965C54.4464 30.6965 52.7185 29.9818 50.7876 28.3117C50.74 28.2691 50.6748 28.2515 50.6146 28.254C50.5494 28.259 50.4917 28.2891 50.4516 28.3368L48.4655 30.6991C48.3827 30.7994 48.3927 30.9448 48.488 31.0301C50.7349 33.0362 53.4984 34.0945 56.4826 34.0945C60.7006 34.0945 63.4265 31.7899 63.4265 28.2214C63.434 25.2104 61.631 23.5428 57.2149 22.4685L57.2074 22.4652ZM72.9709 18.8892C71.1428 18.8892 69.6431 19.6094 68.4043 21.0852V19.4241C68.4043 19.293 68.299 19.1861 68.1686 19.1861H64.9211C64.7907 19.1861 64.6854 19.293 64.6854 19.4241V37.8812C64.6854 38.0116 64.7907 38.1194 64.9211 38.1194H68.1686C68.299 38.1194 68.4043 38.0116 68.4043 37.8812V32.0557C69.6431 33.4425 71.1428 34.1221 72.9709 34.1221C76.3688 34.1221 79.8094 31.5065 79.8094 26.5064C79.8144 21.5053 76.3739 18.889 72.9734 18.889L72.9709 18.8892ZM76.0328 26.5064C76.0328 29.0515 74.4655 30.8295 72.2186 30.8295C69.9992 30.8295 68.3241 28.9712 68.3241 26.5064C68.3241 24.0413 69.9992 22.1836 72.2186 22.1836C74.4279 22.1833 76.0328 24.0012 76.0328 26.5064ZM88.6241 18.8892C84.2481 18.8892 80.82 22.2586 80.82 26.5608C80.82 30.8169 84.2255 34.1497 88.5714 34.1497C92.9624 34.1497 96.4005 30.7918 96.4005 26.5064C96.4005 22.2355 92.985 18.8892 88.6241 18.8892ZM88.6241 30.8545C86.2969 30.8545 84.5415 28.9838 84.5415 26.5051C84.5415 24.0152 86.2367 22.2084 88.5714 22.2084C90.9136 22.2084 92.679 24.0784 92.679 26.5596C92.679 29.049 90.9738 30.8545 88.6241 30.8545ZM105.744 19.1861H102.171V15.5334C102.171 15.4025 102.065 15.2956 101.935 15.2956H98.6875C98.5571 15.2956 98.4493 15.4025 98.4493 15.5334V19.1861H96.8895C96.7591 19.1861 96.6538 19.293 96.6538 19.4241V22.2144C96.6538 22.3453 96.7591 22.4524 96.8895 22.4524H98.4493V29.6734C98.4493 32.5899 99.9013 34.0694 102.768 34.0694C103.931 34.0694 104.897 33.8287 105.807 33.3121C105.882 33.272 105.927 33.1917 105.927 33.1065V30.4483C105.927 30.368 105.885 30.2903 105.814 30.2477C105.744 30.2025 105.656 30.2 105.584 30.2376C104.959 30.5511 104.355 30.6965 103.678 30.6965C102.637 30.6965 102.171 30.2226 102.171 29.1643V22.4537H105.744C105.875 22.4537 105.98 22.3468 105.98 22.2157V19.4256C105.985 19.2945 105.88 19.1876 105.747 19.1876L105.744 19.1861ZM118.193 19.2004V18.7518C118.193 17.432 118.699 16.8434 119.833 16.8434C120.51 16.8434 121.054 16.9778 121.663 17.181C121.738 17.2045 121.816 17.1927 121.876 17.1479C121.939 17.103 121.974 17.031 121.974 16.9548V14.2188C121.974 14.1143 121.909 14.0217 121.806 13.9909C121.164 13.7995 120.342 13.6032 119.108 13.6032C116.111 13.6032 114.524 15.2919 114.524 18.485V19.1721H112.964C112.834 19.1721 112.726 19.2789 112.726 19.4098V22.2144C112.726 22.3453 112.834 22.4524 112.964 22.4524H114.524V33.5879C114.524 33.7208 114.632 33.8262 114.762 33.8262H118.007C118.14 33.8262 118.245 33.7208 118.245 33.5879V22.4532H121.277L125.921 33.5879C125.395 34.7565 124.876 34.9898 124.168 34.9898C123.597 34.9898 122.992 34.8192 122.378 34.4807C122.32 34.4506 122.25 34.4456 122.19 34.4631C122.127 34.4857 122.075 34.5308 122.049 34.591L120.949 37.006C120.896 37.1213 120.941 37.2542 121.051 37.3144C122.2 37.9363 123.236 38.2021 124.517 38.2021C126.914 38.2021 128.241 37.0837 129.407 34.0795L135.039 19.5254C135.07 19.4522 135.059 19.3694 135.014 19.3045C134.972 19.24 134.899 19.2012 134.821 19.2012H131.441C131.338 19.2012 131.248 19.2656 131.215 19.3607L127.752 29.2496L123.96 19.3541C123.925 19.2621 123.837 19.2012 123.74 19.2012L118.193 19.2004ZM110.975 19.1861H107.728C107.597 19.1861 107.49 19.293 107.49 19.4241V33.5879C107.49 33.7208 107.597 33.8262 107.728 33.8262H110.975C111.106 33.8262 111.214 33.7208 111.214 33.5879V19.4251C111.214 19.294 111.108 19.1871 110.975 19.1871V19.1861ZM109.37 12.7365C108.084 12.7365 107.041 13.7777 107.041 15.0639C107.041 16.3509 108.084 17.3934 109.37 17.3934C110.657 17.3934 111.698 16.3509 111.698 15.0639C111.698 13.778 110.654 12.7365 109.37 12.7365ZM137.813 23.7404C136.529 23.7404 135.528 22.7085 135.528 21.4554C135.528 20.2022 136.542 19.1585 137.826 19.1585C139.109 19.1585 140.11 20.1902 140.11 21.4423C140.11 22.6954 139.097 23.7404 137.813 23.7404ZM137.826 19.3857C136.654 19.3857 135.769 20.3161 135.769 21.4554C135.769 22.5941 136.649 23.5119 137.813 23.5119C138.984 23.5119 139.869 22.5823 139.869 21.4423C139.869 20.3036 138.989 19.3857 137.826 19.3857ZM138.332 21.6773L138.979 22.5821H138.432L137.851 21.752H137.352V22.5821H136.895V20.1837H137.963C138.523 20.1837 138.889 20.4688 138.889 20.9488C138.891 21.342 138.663 21.5822 138.335 21.6773H138.332ZM137.946 20.5952H137.352V21.3538H137.946C138.242 21.3538 138.42 21.2086 138.42 20.9741C138.42 20.7274 138.242 20.5952 137.946 20.5952Z" fill="white"/>
</g>
<defs>
<clipPath id="clip0_33_2686">
<rect width="140" height="48" fill="white"/>
</clipPath>
</defs>
</svg>
