<svg width="120" height="120" viewBox="0 0 120 120" fill="none" xmlns="http://www.w3.org/2000/svg">
<path fill-rule="evenodd" clip-rule="evenodd" d="M91.2759 0.249023C108.548 0.249023 119.751 11.4523 119.751 28.7242V91.2759C119.751 108.548 108.548 119.751 91.2759 119.751H28.7242C11.4523 119.751 0.249023 108.548 0.249023 91.2759V28.7242C0.249023 11.4523 11.4523 0.249023 28.7242 0.249023H91.2759Z" fill="#E82127"/>
<path fill-rule="evenodd" clip-rule="evenodd" d="M8.18564 8.18564C3.27988 13.0914 0.497925 20.143 0.497925 28.7241V91.2759C0.497925 99.8569 3.27988 106.909 8.18564 111.814C13.0914 116.72 20.143 119.502 28.7241 119.502H91.2759C99.8569 119.502 106.909 116.72 111.814 111.814C116.72 106.909 119.502 99.8569 119.502 91.2759V28.7241C119.502 20.143 116.72 13.0914 111.814 8.18564C106.909 3.27988 99.8569 0.497925 91.2759 0.497925H28.7241C20.143 0.497925 13.0914 3.27988 8.18564 8.18564ZM7.83356 7.83356C12.8474 2.81971 20.0333 0 28.7241 0H91.2759C99.9667 0 107.153 2.81971 112.166 7.83356C117.18 12.8474 120 20.0333 120 28.7241V91.2759C120 99.9667 117.18 107.153 112.166 112.166C107.153 117.18 99.9667 120 91.2759 120H28.7241C20.0333 120 12.8474 117.18 7.83356 112.166C2.81971 107.153 0 99.9667 0 91.2759V28.7241C0 20.0333 2.81971 12.8474 7.83356 7.83356Z" fill="#A4A4A4"/>
<path d="M61.0065 102.662L72.1979 39.7188C82.8685 39.7188 86.2279 40.8907 86.7161 45.6628C86.7161 45.6628 93.8711 42.9936 97.4844 37.5769C83.3958 31.0469 69.2422 30.754 69.2422 30.754L60.987 40.8061H61.0065L52.7448 30.7475C52.7448 30.7475 38.5911 31.0404 24.5091 37.5704C28.1159 42.987 35.2773 45.6563 35.2773 45.6563C35.7656 40.8842 39.125 39.7123 49.724 39.7058L61.0065 102.662ZM61 27.8438C72.3867 27.7592 85.4206 29.6081 98.7604 35.4219C100.544 32.2123 101 30.793 101 30.793C86.4167 25.0248 72.7578 23.0521 61 23.0001C49.2357 23.0521 35.5833 25.0248 21 30.793C21 30.793 21.651 32.5378 23.2396 35.4219C36.5794 29.6081 49.6133 27.7592 61 27.8438Z" fill="white"/>
</svg>
